<svg xmlns="http://www.w3.org/2000/svg" version="1.1" xmlns:xlink="http://www.w3.org/1999/xlink" width="1000" height="1000"><svg xmlns="http://www.w3.org/2000/svg" version="1.1" xmlns:xlink="http://www.w3.org/1999/xlink" width="1000" height="1000"><svg xmlns="http://www.w3.org/2000/svg" version="1.1" xmlns:xlink="http://www.w3.org/1999/xlink" width="1000" height="1000"><style>
    #light-icon {
      display: inline;
    }
    #dark-icon {
      display: none;
    }

    @media (prefers-color-scheme: dark) {
      #light-icon {
        display: none;
      }
      #dark-icon {
        display: inline;
      }
    }
  </style><g id="light-icon"><svg xmlns="http://www.w3.org/2000/svg" version="1.1" xmlns:xlink="http://www.w3.org/1999/xlink" width="1000" height="1000"><g clip-path="url(#SvgjsClipPath1029)"><rect width="1000" height="1000" fill="#ffffff"></rect><g transform="matrix(1.25,0,0,1.25,0,0)"><svg xmlns="http://www.w3.org/2000/svg" version="1.1" xmlns:xlink="http://www.w3.org/1999/xlink" width="800" height="800"><svg width="800" height="800" viewBox="0 0 800 800" fill="none" xmlns="http://www.w3.org/2000/svg">
<path d="M174.167 363.25V498.75" stroke="#8E51FF" stroke-width="45" stroke-linecap="round" stroke-linejoin="round"></path>
<path d="M241.917 472.989V431C241.917 388.417 241.917 367.124 255.146 353.896C268.375 340.666 289.666 340.667 332.25 340.667H422.583C443.629 340.667 454.15 340.666 462.452 344.105C473.518 348.689 482.312 357.482 486.896 368.549C490.334 376.849 490.334 387.371 490.334 408.417H558.084V374.542C558.084 364.019 558.084 358.758 559.802 354.608C562.094 349.074 566.491 344.678 572.024 342.386C576.175 340.667 581.437 340.667 591.959 340.667C602.48 340.667 607.742 340.667 611.893 342.386C617.426 344.678 621.823 349.074 624.115 354.608C625.834 358.758 625.834 364.019 625.834 374.542V532.625C625.834 543.146 625.834 548.408 624.115 552.559C621.823 558.092 617.426 562.489 611.893 564.781C607.742 566.5 602.48 566.5 591.959 566.5C581.437 566.5 576.175 566.5 572.024 564.781C566.491 562.489 562.094 558.092 559.802 552.559C558.084 548.408 558.084 543.146 558.084 532.625V476.167H490.334C490.334 518.75 490.334 540.041 477.104 553.271C463.875 566.5 442.583 566.5 400 566.5H337.017C323.442 566.5 316.654 566.5 310.253 564.562C303.853 562.625 298.205 558.858 286.909 551.328L282.142 548.151C262.451 535.023 252.605 528.458 247.261 518.472C241.917 508.488 241.917 496.654 241.917 472.989Z" stroke="#8E51FF" stroke-width="45" stroke-linecap="round" stroke-linejoin="round"></path>
<path d="M241.917 431H174.167" stroke="#8E51FF" stroke-width="45" stroke-linecap="round" stroke-linejoin="round"></path>
<path d="M366.125 340.667V272.917" stroke="#8E51FF" stroke-width="45" stroke-linecap="round" stroke-linejoin="round"></path>
<path d="M287.083 272.917H445.167" stroke="#8E51FF" stroke-width="45" stroke-linecap="round" stroke-linejoin="round"></path>
</svg></svg></g></g><defs><clipPath id="SvgjsClipPath1029"><rect width="1000" height="1000" x="0" y="0" rx="350" ry="350"></rect></clipPath></defs></svg></g><g id="dark-icon"><svg xmlns="http://www.w3.org/2000/svg" version="1.1" xmlns:xlink="http://www.w3.org/1999/xlink" width="1000" height="1000"><g clip-path="url(#SvgjsClipPath1030)"><rect width="1000" height="1000" fill="#ffffff"></rect><g transform="matrix(1.25,0,0,1.25,0,0)"><svg xmlns="http://www.w3.org/2000/svg" version="1.1" xmlns:xlink="http://www.w3.org/1999/xlink" width="800" height="800"><svg width="800" height="800" viewBox="0 0 800 800" fill="none" xmlns="http://www.w3.org/2000/svg">
<path d="M174.167 363.25V498.75" stroke="#8E51FF" stroke-width="45" stroke-linecap="round" stroke-linejoin="round"></path>
<path d="M241.917 472.989V431C241.917 388.417 241.917 367.124 255.146 353.896C268.375 340.666 289.666 340.667 332.25 340.667H422.583C443.629 340.667 454.15 340.666 462.452 344.105C473.518 348.689 482.312 357.482 486.896 368.549C490.334 376.849 490.334 387.371 490.334 408.417H558.084V374.542C558.084 364.019 558.084 358.758 559.802 354.608C562.094 349.074 566.491 344.678 572.024 342.386C576.175 340.667 581.437 340.667 591.959 340.667C602.48 340.667 607.742 340.667 611.893 342.386C617.426 344.678 621.823 349.074 624.115 354.608C625.834 358.758 625.834 364.019 625.834 374.542V532.625C625.834 543.146 625.834 548.408 624.115 552.559C621.823 558.092 617.426 562.489 611.893 564.781C607.742 566.5 602.48 566.5 591.959 566.5C581.437 566.5 576.175 566.5 572.024 564.781C566.491 562.489 562.094 558.092 559.802 552.559C558.084 548.408 558.084 543.146 558.084 532.625V476.167H490.334C490.334 518.75 490.334 540.041 477.104 553.271C463.875 566.5 442.583 566.5 400 566.5H337.017C323.442 566.5 316.654 566.5 310.253 564.562C303.853 562.625 298.205 558.858 286.909 551.328L282.142 548.151C262.451 535.023 252.605 528.458 247.261 518.472C241.917 508.488 241.917 496.654 241.917 472.989Z" stroke="#8E51FF" stroke-width="45" stroke-linecap="round" stroke-linejoin="round"></path>
<path d="M241.917 431H174.167" stroke="#8E51FF" stroke-width="45" stroke-linecap="round" stroke-linejoin="round"></path>
<path d="M366.125 340.667V272.917" stroke="#8E51FF" stroke-width="45" stroke-linecap="round" stroke-linejoin="round"></path>
<path d="M287.083 272.917H445.167" stroke="#8E51FF" stroke-width="45" stroke-linecap="round" stroke-linejoin="round"></path>
</svg></svg></g></g><defs><clipPath id="SvgjsClipPath1030"><rect width="1000" height="1000" x="0" y="0" rx="350" ry="350"></rect></clipPath></defs></svg></g></svg></svg><style>@media (prefers-color-scheme: light) { :root { filter: none; } }
@media (prefers-color-scheme: dark) { :root { filter: none; } }
</style></svg>