<svg width="800" height="800" viewBox="0 0 800 800" fill="none" xmlns="http://www.w3.org/2000/svg">
<g clip-path="url(#clip0_3327_2)">
<path d="M66.6665 300V500" stroke="#8E51FF" stroke-width="45" stroke-linecap="round" stroke-linejoin="round"/>
<path d="M166.666 461.976V399.999C166.666 337.146 166.666 305.718 186.193 286.192C205.719 266.666 237.146 266.666 300 266.666H433.334C464.397 266.666 479.927 266.666 492.18 271.741C508.514 278.507 521.494 291.485 528.26 307.82C533.334 320.072 533.334 335.603 533.334 366.666H633.334V316.666C633.334 301.135 633.334 293.369 635.871 287.243C639.254 279.076 645.744 272.586 653.911 269.203C660.037 266.666 667.804 266.666 683.334 266.666C698.864 266.666 706.631 266.666 712.757 269.203C720.924 272.586 727.414 279.076 730.797 287.243C733.334 293.369 733.334 301.135 733.334 316.666V549.999C733.334 565.529 733.334 573.296 730.797 579.422C727.414 587.589 720.924 594.079 712.757 597.462C706.631 599.999 698.864 599.999 683.334 599.999C667.804 599.999 660.037 599.999 653.911 597.462C645.744 594.079 639.254 587.589 635.871 579.422C633.334 573.296 633.334 565.529 633.334 549.999V466.666H533.334C533.334 529.519 533.334 560.946 513.807 580.472C494.28 599.999 462.854 599.999 400 599.999H307.037C286.999 599.999 276.98 599.999 267.533 597.139C258.085 594.279 249.749 588.719 233.077 577.606L226.04 572.916C196.975 553.539 182.443 543.849 174.555 529.109C166.666 514.372 166.666 496.906 166.666 461.976Z" stroke="#8E51FF" stroke-width="45" stroke-linecap="round" stroke-linejoin="round"/>
<path d="M166.667 400H66.6665" stroke="#8E51FF" stroke-width="45" stroke-linecap="round" stroke-linejoin="round"/>
<path d="M350 266.667V166.667" stroke="#8E51FF" stroke-width="45" stroke-linecap="round" stroke-linejoin="round"/>
<path d="M233.334 166.667H466.668" stroke="#8E51FF" stroke-width="45" stroke-linecap="round" stroke-linejoin="round"/>
</g>
<defs>
<clipPath id="clip0_3327_2">
<rect width="800" height="800" fill="white"/>
</clipPath>
</defs>
</svg>
