<svg xmlns="http://www.w3.org/2000/svg" viewBox="0 0 594 97" fill="none" class="h-6">
  <title>Consent Logo</title>
  <path fill="currentColor" fill-rule="evenodd" d="M53.179 70.787c6.17 0 11.172-5.002 11.172-11.172 0-4.009-2.111-7.524-5.283-9.495a23.9 23.9 0 0 1 8.817-1.677c13.217 0 23.93 10.714 23.93 23.93s-10.713 23.93-23.93 23.93c-13.216 0-23.93-10.714-23.93-23.93 0-1.924.227-3.795.656-5.588a11.15 11.15 0 0 0 8.568 4.002" clip-rule="evenodd"/>
  <path fill="currentColor" fill-rule="evenodd" d="M.618 74.716a69 69 0 0 1-.098-3.654c0-37.205 30.16-67.365 67.365-67.365s67.365 30.16 67.365 67.365a68 68 0 0 1-.097 3.654h-21.927q.061-1.164.061-2.343c0-24.531-19.887-44.418-44.418-44.418-24.532 0-44.418 19.887-44.418 44.418q0 1.179.06 2.343z" clip-rule="evenodd"/>
  <path fill="currentColor" d="M565.924 36.6h-7.8V23.52h7.8V.36h14.4v23.16h13.08V36.6h-13.08V84h-14.4zm-68.89-13.08h14.28v8.64c2.76-5.76 9.6-9.84 18.36-9.84 14.52 0 22.92 9.36 22.92 24.24V84h-14.4V48.6c0-8.16-4.68-13.44-12.84-13.44s-14.04 5.76-14.04 14.04V84h-14.28zm-68.269 30.24c0-19.44 13.56-31.92 31.68-31.92 18 0 29.88 13.56 29.88 30.48 0 0 0 2.64-.24 5.04h-47.04c.48 9.6 7.56 15.84 18.24 15.84 7.32 0 11.76-2.4 16.32-6.96l8.64 8.4c-7.8 8.28-16.32 10.8-25.44 10.8-18.96 0-32.04-12.24-32.04-31.2zm46.92-6.48c0-7.2-6.84-13.2-15.24-13.2-9 0-16.44 5.88-17.04 13.2zm-90.819 18.24c2.52 4.08 8.16 7.56 15.96 7.56 8.28 0 10.8-3.48 10.8-6.6 0-5.04-7.2-6.24-16.56-9.6-8.88-3.24-14.88-7.8-14.88-17.04 0-11.64 9.84-18.12 21.36-18.12 10.08 0 16.8 3.84 21 9.12l-8.04 8.52c-2.52-3-6.6-5.28-13.2-5.28-4.56 0-7.32 2.16-7.32 5.4 0 4.56 5.04 5.16 15.24 8.88 11.16 3.96 16.2 9.24 16.2 18 0 10.44-7.56 19.2-24.84 19.2-12.6 0-21.24-5.04-24.96-12.24zm-69.369-42h14.28v8.64c2.76-5.76 9.6-9.84 18.36-9.84 14.52 0 22.92 9.36 22.92 24.24V84h-14.4V48.6c0-8.16-4.68-13.44-12.84-13.44s-14.04 5.76-14.04 14.04V84h-14.28zm-73.192 30.24c0-18.12 14.64-32.04 33-32.04 18.24 0 33 13.92 33 32.04s-14.76 32.04-33 32.04c-18.36 0-33-13.92-33-32.04m14.28 0c0 10.68 8.04 18.96 18.72 18.96 10.56 0 18.72-8.28 18.72-18.96s-8.16-18.96-18.72-18.96c-10.68 0-18.72 8.28-18.72 18.96m-73.698-.12c0-18.48 14.64-32.04 32.88-32.04 9 0 17.28 3 24.24 10.44l-8.88 9.24c-4.08-4.2-8.88-6.6-15.36-6.6-10.56 0-18.6 8.04-18.6 18.96s8.04 18.96 18.6 18.96c6.48 0 11.28-2.4 15.36-6.6l8.88 9.24c-6.96 7.44-15.24 10.44-24.24 10.44-18.24 0-32.88-13.56-32.88-32.04"/>
</svg>
